<mxfile host="app.diagrams.net" modified="2024-07-21T18:40:45.858Z" agent="Mozilla/5.0 (Macintosh; Intel Mac OS X 10_15_7) AppleWebKit/605.1.15 (KHTML, like Gecko) Version/17.5 Safari/605.1.15" etag="1lU9wbfA8xA7VFNSq_ox" version="24.7.2" type="github">
  <diagram name="Page-1" id="9f46799a-70d6-7492-0946-bef42562c5a5">
    <mxGraphModel dx="1033" dy="1064" grid="1" gridSize="9" guides="1" tooltips="1" connect="1" arrows="1" fold="1" page="1" pageScale="1" pageWidth="1100" pageHeight="850" background="none" math="0" shadow="0">
      <root>
        <mxCell id="0" />
        <mxCell id="1" parent="0" />
        <object label="admin login" id="CBxtj87pKqYlVacztBhi-2">
          <mxCell style="swimlane;fontStyle=0;childLayout=stackLayout;horizontal=1;startSize=30;horizontalStack=0;resizeParent=1;resizeParentMax=0;resizeLast=0;collapsible=1;marginBottom=0;whiteSpace=wrap;html=1;" vertex="1" parent="1">
            <mxGeometry x="40" y="40" width="140" height="90" as="geometry" />
          </mxCell>
        </object>
        <mxCell id="CBxtj87pKqYlVacztBhi-4" value="login id :" style="text;strokeColor=none;fillColor=none;align=left;verticalAlign=middle;spacingLeft=4;spacingRight=4;overflow=hidden;points=[[0,0.5],[1,0.5]];portConstraint=eastwest;rotatable=0;whiteSpace=wrap;html=1;" vertex="1" parent="CBxtj87pKqYlVacztBhi-2">
          <mxGeometry y="30" width="140" height="30" as="geometry" />
        </mxCell>
        <mxCell id="CBxtj87pKqYlVacztBhi-5" value="password :" style="text;strokeColor=none;fillColor=none;align=left;verticalAlign=middle;spacingLeft=4;spacingRight=4;overflow=hidden;points=[[0,0.5],[1,0.5]];portConstraint=eastwest;rotatable=0;whiteSpace=wrap;html=1;" vertex="1" parent="CBxtj87pKqYlVacztBhi-2">
          <mxGeometry y="60" width="140" height="30" as="geometry" />
        </mxCell>
        <object label="user login" id="CBxtj87pKqYlVacztBhi-6">
          <mxCell style="swimlane;fontStyle=0;childLayout=stackLayout;horizontal=1;startSize=30;horizontalStack=0;resizeParent=1;resizeParentMax=0;resizeLast=0;collapsible=1;marginBottom=0;whiteSpace=wrap;html=1;" vertex="1" parent="1">
            <mxGeometry x="50" y="710" width="140" height="90" as="geometry" />
          </mxCell>
        </object>
        <mxCell id="CBxtj87pKqYlVacztBhi-7" value="login id :" style="text;strokeColor=none;fillColor=none;align=left;verticalAlign=middle;spacingLeft=4;spacingRight=4;overflow=hidden;points=[[0,0.5],[1,0.5]];portConstraint=eastwest;rotatable=0;whiteSpace=wrap;html=1;" vertex="1" parent="CBxtj87pKqYlVacztBhi-6">
          <mxGeometry y="30" width="140" height="30" as="geometry" />
        </mxCell>
        <mxCell id="CBxtj87pKqYlVacztBhi-8" value="password :" style="text;strokeColor=none;fillColor=none;align=left;verticalAlign=middle;spacingLeft=4;spacingRight=4;overflow=hidden;points=[[0,0.5],[1,0.5]];portConstraint=eastwest;rotatable=0;whiteSpace=wrap;html=1;" vertex="1" parent="CBxtj87pKqYlVacztBhi-6">
          <mxGeometry y="60" width="140" height="30" as="geometry" />
        </mxCell>
        <mxCell id="CBxtj87pKqYlVacztBhi-48" style="edgeStyle=orthogonalEdgeStyle;rounded=0;orthogonalLoop=1;jettySize=auto;html=1;exitX=1;exitY=0.5;exitDx=0;exitDy=0;" edge="1" parent="1" source="CBxtj87pKqYlVacztBhi-13" target="CBxtj87pKqYlVacztBhi-25">
          <mxGeometry relative="1" as="geometry">
            <Array as="points">
              <mxPoint x="333" y="190" />
              <mxPoint x="333" y="117" />
            </Array>
          </mxGeometry>
        </mxCell>
        <mxCell id="CBxtj87pKqYlVacztBhi-54" style="edgeStyle=orthogonalEdgeStyle;rounded=0;orthogonalLoop=1;jettySize=auto;html=1;exitX=0.5;exitY=1;exitDx=0;exitDy=0;" edge="1" parent="1" source="CBxtj87pKqYlVacztBhi-13">
          <mxGeometry relative="1" as="geometry">
            <mxPoint x="261" y="639" as="targetPoint" />
          </mxGeometry>
        </mxCell>
        <mxCell id="CBxtj87pKqYlVacztBhi-13" value="admin db" style="shape=datastore;whiteSpace=wrap;html=1;" vertex="1" parent="1">
          <mxGeometry x="220" y="160" width="60" height="60" as="geometry" />
        </mxCell>
        <mxCell id="CBxtj87pKqYlVacztBhi-14" value="user db" style="shape=datastore;whiteSpace=wrap;html=1;" vertex="1" parent="1">
          <mxGeometry x="240" y="640" width="60" height="60" as="geometry" />
        </mxCell>
        <mxCell id="CBxtj87pKqYlVacztBhi-16" value="" style="edgeStyle=elbowEdgeStyle;elbow=horizontal;endArrow=classic;html=1;curved=0;rounded=0;endSize=8;startSize=8;" edge="1" parent="1">
          <mxGeometry width="50" height="50" relative="1" as="geometry">
            <mxPoint x="190" y="720" as="sourcePoint" />
            <mxPoint x="240" y="670" as="targetPoint" />
          </mxGeometry>
        </mxCell>
        <mxCell id="CBxtj87pKqYlVacztBhi-17" value="" style="edgeStyle=elbowEdgeStyle;elbow=horizontal;endArrow=classic;html=1;curved=0;rounded=0;endSize=8;startSize=8;entryX=0;entryY=0.7;entryDx=0;entryDy=0;exitX=1;exitY=0.25;exitDx=0;exitDy=0;" edge="1" parent="1" source="CBxtj87pKqYlVacztBhi-2" target="CBxtj87pKqYlVacztBhi-13">
          <mxGeometry width="50" height="50" relative="1" as="geometry">
            <mxPoint x="190" y="60" as="sourcePoint" />
            <mxPoint x="190" y="200" as="targetPoint" />
          </mxGeometry>
        </mxCell>
        <mxCell id="CBxtj87pKqYlVacztBhi-22" value="admin" style="swimlane;fontStyle=0;childLayout=stackLayout;horizontal=1;startSize=30;horizontalStack=0;resizeParent=1;resizeParentMax=0;resizeLast=0;collapsible=1;marginBottom=0;whiteSpace=wrap;html=1;" vertex="1" parent="1">
          <mxGeometry x="387" y="55" width="207" height="270" as="geometry">
            <mxRectangle x="400" y="100" width="60" height="30" as="alternateBounds" />
          </mxGeometry>
        </mxCell>
        <mxCell id="CBxtj87pKqYlVacztBhi-25" value="&lt;ul style=&quot;list-style-type: disc&quot;&gt;&#xa;&lt;li style=&quot;margin: 0.0px 0.0px 0.0px 0.0px; font: 16.0px Helvetica; color: #000000&quot;&gt;Login&lt;/li&gt;&#xa;&lt;li style=&quot;margin: 0.0px 0.0px 0.0px 0.0px; font: 16.0px Helvetica; color: #000000&quot;&gt;Manage user&lt;/li&gt;&#xa;&lt;li style=&quot;margin: 0.0px 0.0px 0.0px 0.0px; font: 16.0px Helvetica; color: #000000&quot;&gt;Manage trip&lt;/li&gt;&#xa;&lt;li style=&quot;margin: 0.0px 0.0px 0.0px 0.0px; font: 16.0px Helvetica; color: #000000&quot;&gt;Add popular locations&lt;/li&gt;&#xa;&lt;li style=&quot;margin: 0.0px 0.0px 0.0px 0.0px; font: 16.0px Helvetica; color: #000000&quot;&gt;View rating&lt;/li&gt;&#xa;&lt;li style=&quot;margin: 0.0px 0.0px 0.0px 0.0px; font: 16.0px Helvetica; color: #000000&quot;&gt;View complaints and block user&lt;/li&gt;&#xa;&lt;/ul&gt;" style="text;strokeColor=none;fillColor=none;align=left;verticalAlign=middle;spacingLeft=4;spacingRight=4;overflow=hidden;points=[[0,0.5],[1,0.5]];portConstraint=eastwest;rotatable=0;whiteSpace=wrap;html=1;" vertex="1" parent="CBxtj87pKqYlVacztBhi-22">
          <mxGeometry y="30" width="207" height="240" as="geometry" />
        </mxCell>
        <mxCell id="CBxtj87pKqYlVacztBhi-39" value="user" style="swimlane;fontStyle=0;childLayout=stackLayout;horizontal=1;startSize=30;horizontalStack=0;resizeParent=1;resizeParentMax=0;resizeLast=0;collapsible=1;marginBottom=0;whiteSpace=wrap;html=1;" vertex="1" parent="1">
          <mxGeometry x="387" y="580" width="225" height="378" as="geometry" />
        </mxCell>
        <mxCell id="CBxtj87pKqYlVacztBhi-51" style="edgeStyle=orthogonalEdgeStyle;rounded=0;orthogonalLoop=1;jettySize=auto;html=1;" edge="1" parent="CBxtj87pKqYlVacztBhi-39" source="CBxtj87pKqYlVacztBhi-40">
          <mxGeometry relative="1" as="geometry">
            <mxPoint x="-81" y="112.99999999999977" as="targetPoint" />
          </mxGeometry>
        </mxCell>
        <mxCell id="CBxtj87pKqYlVacztBhi-40" value="&lt;ul&gt;&lt;br&gt;&lt;li style=&quot;margin: 0px; font-style: normal; font-variant-caps: normal; font-stretch: normal; font-size: 16px; line-height: normal; font-size-adjust: none; font-kerning: auto; font-variant-alternates: normal; font-variant-ligatures: normal; font-variant-numeric: normal; font-variant-east-asian: normal; font-variant-position: normal; font-variant-emoji: normal; font-feature-settings: normal; font-optical-sizing: auto; font-variation-settings: normal;&quot;&gt;Register&lt;/li&gt;&lt;br&gt;&lt;li style=&quot;margin: 0px; font-style: normal; font-variant-caps: normal; font-stretch: normal; font-size: 16px; line-height: normal; font-size-adjust: none; font-kerning: auto; font-variant-alternates: normal; font-variant-ligatures: normal; font-variant-numeric: normal; font-variant-east-asian: normal; font-variant-position: normal; font-variant-emoji: normal; font-feature-settings: normal; font-optical-sizing: auto; font-variation-settings: normal;&quot;&gt;Login&lt;/li&gt;&lt;br&gt;&lt;li style=&quot;margin: 0px; font-style: normal; font-variant-caps: normal; font-stretch: normal; font-size: 16px; line-height: normal; font-size-adjust: none; font-kerning: auto; font-variant-alternates: normal; font-variant-ligatures: normal; font-variant-numeric: normal; font-variant-east-asian: normal; font-variant-position: normal; font-variant-emoji: normal; font-feature-settings: normal; font-optical-sizing: auto; font-variation-settings: normal;&quot;&gt;Manage trip(add, delete, update)&lt;/li&gt;&lt;br&gt;&lt;li style=&quot;margin: 0px; font-style: normal; font-variant-caps: normal; font-stretch: normal; font-size: 16px; line-height: normal; font-size-adjust: none; font-kerning: auto; font-variant-alternates: normal; font-variant-ligatures: normal; font-variant-numeric: normal; font-variant-east-asian: normal; font-variant-position: normal; font-variant-emoji: normal; font-feature-settings: normal; font-optical-sizing: auto; font-variation-settings: normal;&quot;&gt;Search location&lt;/li&gt;&lt;br&gt;&lt;li style=&quot;margin: 0px; font-style: normal; font-variant-caps: normal; font-stretch: normal; font-size: 16px; line-height: normal; font-size-adjust: none; font-kerning: auto; font-variant-alternates: normal; font-variant-ligatures: normal; font-variant-numeric: normal; font-variant-east-asian: normal; font-variant-position: normal; font-variant-emoji: normal; font-feature-settings: normal; font-optical-sizing: auto; font-variation-settings: normal;&quot;&gt;Add rating&lt;/li&gt;&lt;br&gt;&lt;li style=&quot;margin: 0px; font-style: normal; font-variant-caps: normal; font-stretch: normal; font-size: 16px; line-height: normal; font-size-adjust: none; font-kerning: auto; font-variant-alternates: normal; font-variant-ligatures: normal; font-variant-numeric: normal; font-variant-east-asian: normal; font-variant-position: normal; font-variant-emoji: normal; font-feature-settings: normal; font-optical-sizing: auto; font-variation-settings: normal;&quot;&gt;View rating&lt;/li&gt;&lt;br&gt;&lt;li style=&quot;margin: 0px; font-style: normal; font-variant-caps: normal; font-stretch: normal; font-size: 16px; line-height: normal; font-size-adjust: none; font-kerning: auto; font-variant-alternates: normal; font-variant-ligatures: normal; font-variant-numeric: normal; font-variant-east-asian: normal; font-variant-position: normal; font-variant-emoji: normal; font-feature-settings: normal; font-optical-sizing: auto; font-variation-settings: normal;&quot;&gt;Manage request(add, manage, view)&lt;/li&gt;&lt;br&gt;&lt;li style=&quot;margin: 0px; font-style: normal; font-variant-caps: normal; font-stretch: normal; font-size: 16px; line-height: normal; font-size-adjust: none; font-kerning: auto; font-variant-alternates: normal; font-variant-ligatures: normal; font-variant-numeric: normal; font-variant-east-asian: normal; font-variant-position: normal; font-variant-emoji: normal; font-feature-settings: normal; font-optical-sizing: auto; font-variation-settings: normal;&quot;&gt;Complaint registration&lt;/li&gt;&lt;/ul&gt;" style="text;strokeColor=none;fillColor=none;align=left;verticalAlign=middle;spacingLeft=4;spacingRight=4;overflow=hidden;points=[[0,0.5],[1,0.5]];portConstraint=eastwest;rotatable=0;whiteSpace=wrap;html=1;" vertex="1" parent="CBxtj87pKqYlVacztBhi-39">
          <mxGeometry y="30" width="225" height="348" as="geometry" />
        </mxCell>
        <mxCell id="CBxtj87pKqYlVacztBhi-50" style="edgeStyle=orthogonalEdgeStyle;rounded=0;orthogonalLoop=1;jettySize=auto;html=1;entryX=-0.007;entryY=0.064;entryDx=0;entryDy=0;entryPerimeter=0;" edge="1" parent="1" source="CBxtj87pKqYlVacztBhi-14" target="CBxtj87pKqYlVacztBhi-40">
          <mxGeometry relative="1" as="geometry" />
        </mxCell>
        <mxCell id="CBxtj87pKqYlVacztBhi-53" style="edgeStyle=orthogonalEdgeStyle;rounded=0;orthogonalLoop=1;jettySize=auto;html=1;entryX=0.85;entryY=0.95;entryDx=0;entryDy=0;entryPerimeter=0;" edge="1" parent="1" source="CBxtj87pKqYlVacztBhi-25" target="CBxtj87pKqYlVacztBhi-13">
          <mxGeometry relative="1" as="geometry" />
        </mxCell>
      </root>
    </mxGraphModel>
  </diagram>
</mxfile>
